<mxfile host="app.diagrams.net" modified="2023-12-19T11:26:06.208Z" agent="Mozilla/5.0 (Windows NT 10.0; Win64; x64) AppleWebKit/537.36 (KHTML, like Gecko) Chrome/120.0.0.0 Safari/537.36" version="22.1.11" etag="-FS9xJjIQa23B4lOVM7u" type="github">
  <diagram name="Page-1" id="pwrTNMxeEoUA_0rpB6v-">
    <mxGraphModel>
      <root>
        <mxCell id="0" />
        <mxCell id="1" parent="0" />
      </root>
    </mxGraphModel>
  </diagram>
</mxfile>
